<svg width="43" height="43" viewBox="0 0 43 43" fill="none" xmlns="http://www.w3.org/2000/svg">
<circle cx="21.5" cy="21.5" r="21.5" fill="#202C75"/>
<path d="M25.3913 12.3518C25.6608 12.6213 25.8122 12.9869 25.8122 13.3681C25.8122 13.7492 25.6608 14.1148 25.3913 14.3844L18.2757 21.5L25.3913 28.6156C25.6531 28.8867 25.798 29.2499 25.7948 29.6268C25.7915 30.0037 25.6403 30.3642 25.3738 30.6307C25.1073 30.8973 24.7467 31.0484 24.3698 31.0517C23.9929 31.055 23.6298 30.9101 23.3587 30.6483L15.2267 22.5163C14.9572 22.2467 14.8058 21.8812 14.8058 21.5C14.8058 21.1188 14.9572 20.7533 15.2267 20.4837L23.3587 12.3518C23.6282 12.0823 23.9938 11.9309 24.375 11.9309C24.7561 11.9309 25.1217 12.0823 25.3913 12.3518Z" fill="white"/>
</svg>
