<svg width="43" height="43" viewBox="0 0 43 43" fill="none" xmlns="http://www.w3.org/2000/svg">
<circle cx="21.5" cy="21.5" r="21.5" fill="#202C75"/>
<path d="M17.6087 30.6482C17.3392 30.3787 17.1878 30.0131 17.1878 29.6319C17.1878 29.2508 17.3392 28.8852 17.6087 28.6156L24.7243 21.5L17.6087 14.3844C17.3468 14.1133 17.202 13.7501 17.2052 13.3732C17.2085 12.9963 17.3597 12.6358 17.6262 12.3693C17.8927 12.1027 18.2533 11.9516 18.6302 11.9483C19.0071 11.945 19.3702 12.0899 19.6413 12.3517L27.7733 20.4837C28.0427 20.7533 28.1941 21.1188 28.1941 21.5C28.1941 21.8812 28.0427 22.2467 27.7733 22.5163L19.6413 30.6482C19.3718 30.9177 19.0062 31.0691 18.625 31.0691C18.2438 31.0691 17.8783 30.9177 17.6087 30.6482Z" fill="white"/>
</svg>
