<svg width="363" height="243" viewBox="0 0 363 243" fill="none" xmlns="http://www.w3.org/2000/svg">
<path fill-rule="evenodd" clip-rule="evenodd" d="M293.854 210.364C288.559 204.984 284.51 198.544 282.018 191.464C281.933 191.631 281.82 191.798 281.735 191.966C282.386 191.826 283.009 191.715 283.66 191.575C284.029 191.492 284.085 190.99 283.774 190.823C281.339 189.54 281.055 185.415 280.517 183.045C279.81 179.951 279.158 176.857 278.592 173.763C277.403 167.407 276.497 160.996 275.845 154.556C275.619 154.668 275.421 154.807 275.194 154.919C279.923 157.679 284.425 160.773 288.644 164.257C292.438 167.407 296.233 170.78 298.923 174.906C301.811 179.282 303.198 184.579 304.048 189.652C305.01 195.255 305.01 200.969 303.651 206.517C303.51 207.046 304.331 207.269 304.472 206.74C306.596 198.293 305.52 189.29 302.802 181.094C300.168 173.261 294.222 167.602 287.851 162.529C284 159.463 279.895 156.675 275.647 154.194C275.392 154.055 274.968 154.222 274.996 154.556C275.676 161.442 276.667 168.271 277.969 175.045C278.62 178.418 279.328 181.791 280.149 185.108C280.687 187.366 281.055 190.321 283.349 191.547C283.377 191.297 283.406 191.046 283.462 190.795C282.811 190.934 282.188 191.046 281.537 191.185C281.31 191.241 281.169 191.492 281.254 191.687C283.802 198.907 287.908 205.457 293.316 210.949C293.656 211.339 294.25 210.754 293.854 210.364Z" fill="#E8E8E8"/>
<path fill-rule="evenodd" clip-rule="evenodd" d="M275.93 155.253C286.181 169.86 293.259 186.474 296.657 203.896C296.771 204.426 297.592 204.203 297.478 203.673C294.052 186.167 286.945 169.47 276.638 154.807C276.355 154.389 275.619 154.807 275.93 155.253Z" fill="#E8E8E8"/>
<path fill-rule="evenodd" clip-rule="evenodd" d="M279.328 179.282C283.604 180.202 288.106 181.233 291.079 184.662C291.419 185.08 292.042 184.467 291.674 184.077C288.616 180.537 283.972 179.422 279.555 178.474C279.017 178.362 278.79 179.171 279.328 179.282Z" fill="#E8E8E8"/>
<path fill-rule="evenodd" clip-rule="evenodd" d="M290.598 179.338C290.286 175.435 290.909 171.56 292.495 167.964C292.721 167.463 291.985 167.045 291.759 167.546C290.116 171.282 289.409 175.268 289.748 179.338C289.805 179.867 290.654 179.867 290.598 179.338Z" fill="#E8E8E8"/>
<path fill-rule="evenodd" clip-rule="evenodd" d="M297.422 171.672C299.461 159.184 308.153 149.483 316.478 140.424C316.252 140.284 315.997 140.145 315.77 140.005C313.816 146.891 318.404 153.274 320.074 159.741C320.98 163.309 321.405 166.989 321.49 170.669C321.547 172.481 321.518 174.32 321.462 176.132C321.433 177.024 321.433 177.944 321.235 178.808C320.952 180.007 319.593 181.875 318.149 180.62C317.979 180.843 317.809 181.066 317.639 181.289C320.131 182.572 319.225 186.251 318.828 188.398C318.319 191.297 317.469 194.056 315.572 196.398C312.825 199.743 308.89 202.224 307.587 206.517C307.417 207.046 308.238 207.241 308.408 206.74C310.022 201.499 315.714 198.99 318.064 194.14C319.281 191.631 319.819 188.676 320.074 185.944C320.272 183.965 320.074 181.596 318.064 180.592C317.667 180.397 317.158 180.927 317.554 181.261C318.432 182.042 319.649 182.042 320.64 181.401C321.745 180.676 322.085 179.338 322.198 178.084C322.651 173.874 322.453 169.442 321.943 165.261C321.433 161.079 320.301 157.149 318.715 153.274C317.044 149.149 315.317 144.772 316.591 140.284C316.705 139.894 316.167 139.559 315.883 139.866C307.474 149.037 298.668 158.877 296.601 171.477C296.516 171.979 297.337 172.202 297.422 171.672Z" fill="#E8E8E8"/>
<path fill-rule="evenodd" clip-rule="evenodd" d="M314.807 142.849C308.918 157.149 305.265 172.257 303.963 187.645C303.906 188.174 304.755 188.174 304.812 187.645C306.115 172.341 309.767 157.316 315.629 143.072C315.827 142.598 315.006 142.375 314.807 142.849Z" fill="#E8E8E8"/>
<path fill-rule="evenodd" clip-rule="evenodd" d="M233.882 186.641C240.819 188.119 247.587 184.829 254.269 183.519C261.631 182.098 269.22 182.098 276.61 183.408C277.148 183.491 277.374 182.711 276.836 182.599C269.984 181.373 262.99 181.289 256.138 182.348C252.627 182.906 249.229 183.854 245.831 184.801C242.008 185.833 238.073 186.669 234.137 185.833C233.57 185.721 233.344 186.502 233.882 186.641Z" fill="#E8E8E8"/>
<path fill-rule="evenodd" clip-rule="evenodd" d="M320.584 184.077C324.605 183.324 328.569 184.272 332.448 185.22C336.242 186.112 340.065 186.92 343.944 187.589C351.419 188.871 359.008 189.624 366.596 189.931C367.134 189.959 367.134 189.122 366.596 189.094C358.527 188.788 350.513 187.924 342.557 186.502C338.706 185.805 334.911 184.941 331.117 184.049C327.578 183.213 323.982 182.599 320.357 183.296C319.848 183.38 320.074 184.188 320.584 184.077Z" fill="#E8E8E8"/>
<path fill-rule="evenodd" clip-rule="evenodd" d="M0.534145 160.717C10.5578 158.431 20.5815 155.783 30.7467 154.333C40.8837 152.912 51.1622 152.744 61.3841 153.609C81.035 155.281 100.12 160.355 119.374 164.285C129.992 166.459 140.724 168.243 151.569 168.968C152.107 168.996 152.107 168.16 151.569 168.132C131.691 166.794 112.38 161.804 92.9558 157.734C73.6447 153.72 53.9937 150.821 34.2295 153.051C22.7618 154.361 11.5489 157.344 0.307621 159.909C-0.230373 160.02 -0.00384925 160.828 0.534145 160.717Z" fill="#E8E8E8"/>
<path fill-rule="evenodd" clip-rule="evenodd" d="M80.9501 155.253C97.5712 153.832 113.853 149.985 129.964 145.859C146.444 141.622 162.923 137.329 179.403 133.036C195.854 128.771 212.277 124.395 228.785 120.241C236.997 118.179 245.293 116.311 253.731 115.53C261.858 114.778 270.069 114.889 278.196 115.642C297.167 117.37 315.629 122.36 333.949 127.322C334.487 127.461 334.713 126.653 334.175 126.513C318.064 122.137 301.867 117.761 285.246 115.586C276.978 114.499 268.597 113.942 260.244 114.276C252.032 114.583 243.934 115.865 235.921 117.649C227.766 119.489 219.696 121.691 211.598 123.81C203.33 125.956 195.061 128.102 186.793 130.249C170.087 134.57 153.353 138.918 136.647 143.239C118.326 147.978 99.8931 152.772 80.9501 154.389C80.4121 154.473 80.4121 155.309 80.9501 155.253Z" fill="#E8E8E8"/>
<path fill-rule="evenodd" clip-rule="evenodd" d="M35.3338 205.374C42.2428 205.625 49.1801 205.876 56.0891 206.126C62.8282 206.377 69.5956 206.768 76.3346 206.823C82.9038 206.879 89.2465 205.625 95.7024 204.482C102.442 203.283 109.266 202.419 116.09 201.945C123.706 201.388 131.352 201.304 138.968 201.611C139.506 201.638 139.506 200.802 138.968 200.774C125.604 200.217 112.21 200.969 99.0153 203.088C92.2762 204.175 85.5938 205.848 78.7698 205.987C72.0873 206.154 65.3199 205.653 58.6375 205.402C50.879 205.123 43.1206 204.844 35.3622 204.565C34.7958 204.51 34.7958 205.346 35.3338 205.374Z" fill="#E8E8E8"/>
<path fill-rule="evenodd" clip-rule="evenodd" d="M21.431 241.891C21.8557 242.197 22.2804 242.476 22.7052 242.783C23.1016 243.062 23.5546 242.448 23.2148 242.114C21.9123 240.776 20.6381 239.466 19.3356 238.128C18.741 237.514 18.0331 236.957 17.5517 236.26C16.8155 235.201 17.5801 234.699 17.75 233.835C17.9482 232.943 17.0421 232.441 16.5324 231.883C15.3998 230.685 14.6636 229.18 14.0973 227.646C11.7471 221.319 10.9259 214.182 10.6994 207.492C10.5578 207.632 10.4162 207.771 10.2747 207.91C17.4102 207.269 21.5442 213.904 23.9227 219.507C26.5844 225.723 29.0195 232.218 29.331 239.047C29.3593 239.577 30.2088 239.577 30.1804 239.047C29.8407 231.744 27.179 224.664 24.1776 218.029C21.6858 212.482 17.1836 206.433 10.2464 207.046C10.0198 207.074 9.82162 207.213 9.82162 207.464C9.9632 211.06 10.303 214.628 10.8976 218.169C11.4922 221.625 12.1718 225.193 13.4743 228.455C13.9557 229.653 14.5503 230.796 15.3431 231.8C15.9094 232.497 16.8722 233.11 16.5324 234.141C16.3908 234.56 16.1077 234.783 16.136 235.284C16.1926 236.511 17.5517 237.514 18.3163 238.295C19.732 239.744 21.1761 241.222 22.5919 242.671C22.7618 242.448 22.9317 242.225 23.1016 242.002C22.6768 241.696 22.2521 241.417 21.8274 241.11C21.4026 240.859 20.9779 241.584 21.431 241.891Z" fill="#E8E8E8"/>
<path fill-rule="evenodd" clip-rule="evenodd" d="M26.6976 222.907C29.1611 216.552 33.4933 211.005 39.1281 207.074C38.9299 207.018 38.7317 206.963 38.5335 206.935C40.1191 210.503 41.1951 214.238 41.7614 218.085C41.8464 217.918 41.9597 217.75 42.0446 217.583C41.365 217.778 40.6855 217.973 39.9776 218.169C39.6944 218.252 39.6095 218.531 39.7227 218.782C40.5156 220.65 41.3933 222.768 40.5156 224.747C39.7794 226.392 38.1937 227.618 37.0894 228.984C35.079 231.437 33.5216 234.169 32.3324 237.068C32.1342 237.57 32.9553 237.793 33.1535 237.291C34.7392 233.361 37.1177 230.239 39.9209 227.089C40.9403 225.946 41.7048 224.691 41.7614 223.13C41.8181 221.458 41.1102 219.869 40.4589 218.364C40.374 218.559 40.289 218.782 40.2041 218.977C40.8837 218.782 41.5632 218.587 42.2711 218.392C42.4976 218.336 42.6109 218.113 42.5543 217.89C41.9597 213.959 40.8554 210.168 39.2414 206.517C39.1564 206.321 38.845 206.238 38.6467 206.377C32.8138 210.475 28.3682 216.134 25.8198 222.712C25.7066 223.186 26.4994 223.409 26.6976 222.907Z" fill="#E8E8E8"/>
<path fill-rule="evenodd" clip-rule="evenodd" d="M13.2195 212.008C20.4399 220.176 25.1403 230.35 26.5844 241.082C26.6693 241.612 27.5188 241.612 27.4338 241.082C25.9331 230.099 21.2044 219.758 13.8141 211.395C13.446 211.005 12.8514 211.59 13.2195 212.008Z" fill="#E8E8E8"/>
<path fill-rule="evenodd" clip-rule="evenodd" d="M30.5485 231.716C31.8794 227.089 33.7482 222.657 36.155 218.447C36.4098 217.974 35.702 217.555 35.4188 218.029C32.9837 222.294 31.0865 226.81 29.7274 231.493C29.5575 232.023 30.3786 232.246 30.5485 231.716Z" fill="#E8E8E8"/>
<path fill-rule="evenodd" clip-rule="evenodd" d="M13.5026 196.816C23.4131 194.92 33.55 194.196 43.517 196.063C48.1608 196.927 52.7479 197.931 57.4482 198.461C62.4034 199.018 67.4153 199.241 72.3988 199.436C72.9368 199.464 72.9368 198.628 72.3988 198.6C67.4153 198.377 62.4034 198.182 57.4482 197.624C52.2948 197.039 47.2547 195.84 42.1296 194.976C32.5589 193.359 22.7335 194.223 13.2761 196.035C12.7381 196.119 12.9646 196.927 13.5026 196.816Z" fill="#E8E8E8"/>
<path fill-rule="evenodd" clip-rule="evenodd" d="M50.8507 229.96C56.5138 229.068 62.1769 228.148 67.8966 227.814C73.7013 227.479 79.3078 227.953 84.9992 228.984C90.2092 229.932 95.2494 230.378 100.573 230.267C106.094 230.127 111.672 229.876 117.052 231.298C117.59 231.437 117.817 230.629 117.279 230.49C112.069 229.096 106.717 229.263 101.366 229.402C98.534 229.486 95.6741 229.514 92.8426 229.291C89.9261 229.068 87.0379 228.483 84.178 227.981C78.6848 227.005 73.2199 226.643 67.6135 226.977C61.9221 227.34 56.259 228.232 50.6242 229.124C50.0862 229.235 50.3127 230.044 50.8507 229.96Z" fill="#E8E8E8"/>
<path fill-rule="evenodd" clip-rule="evenodd" d="M206.501 236.622C217.119 235.117 227.794 234.225 238.526 234.002C248.974 233.779 259.422 234.197 269.871 234.42C270.409 234.42 270.409 233.584 269.871 233.584C259.253 233.361 248.606 232.943 237.959 233.194C227.341 233.444 216.779 234.337 206.274 235.814C205.736 235.898 205.963 236.678 206.501 236.622Z" fill="#E8E8E8"/>
<path fill-rule="evenodd" clip-rule="evenodd" d="M253.561 242.616C257.61 240.915 261.971 242.978 266.133 242.783C267.011 242.727 267.917 242.616 268.767 242.337C269.927 241.947 271.003 241.333 272.249 241.278C274.401 241.166 276.412 241.974 278.564 241.64C279.102 241.556 278.875 240.748 278.337 240.832C275.93 241.222 273.58 240.051 271.202 240.581C270.126 240.804 269.163 241.361 268.115 241.668C267.039 241.947 265.935 242.002 264.831 241.974C260.895 241.807 256.959 240.33 253.108 241.947C252.655 242.086 253.08 242.811 253.561 242.616Z" fill="#E8E8E8"/>
<path fill-rule="evenodd" clip-rule="evenodd" d="M310.843 211.813C317.979 209.722 325.114 209.778 332.42 210.642C339.3 211.451 346.238 212.51 353.147 211.311C353.685 211.228 353.458 210.419 352.92 210.503C345.728 211.757 338.508 210.475 331.344 209.694C324.293 208.914 317.413 208.998 310.588 211.033C310.107 211.172 310.305 211.98 310.843 211.813Z" fill="#E8E8E8"/>
<path fill-rule="evenodd" clip-rule="evenodd" d="M282.386 52.42C277.12 49.6324 273.693 44.2245 274.486 38.2313C275.194 32.7398 279.668 28.0009 285.133 26.7186C290.711 25.4363 296.94 28.0288 299.97 32.7955C303.226 37.8968 302.519 44.6427 298.526 49.1585C293.996 54.2876 286.067 55.0682 280.348 51.4443C279.895 51.1377 279.47 51.8625 279.923 52.1691C285.246 55.5699 292.608 55.3469 297.535 51.305C302.434 47.2909 304.246 40.3219 301.811 34.4959C299.489 28.9487 293.543 25.3248 287.455 25.5757C281.452 25.8545 276.015 30.1195 274.203 35.7225C271.938 42.6635 275.732 49.7997 281.99 53.1169C282.443 53.3956 282.868 52.6709 282.386 52.42Z" fill="#E8E8E8"/>
<path fill-rule="evenodd" clip-rule="evenodd" d="M37.9955 113.384C40.8837 110.847 44.9328 112.576 47.0848 115.14C48.1891 116.45 48.8403 117.928 49.6898 119.377C50.2278 120.353 51.0206 121.329 52.2099 121.552C53.1443 121.719 53.9088 121.384 54.5317 120.715C54.9281 120.269 55.183 119.684 55.5794 119.238C56.4289 118.262 57.5332 118.374 58.4393 119.154C60.4213 120.855 60.5063 125.064 63.9891 124.757C64.5271 124.702 64.5271 123.865 63.9891 123.921C60.3647 124.256 60.7894 118.262 57.3066 117.677C56.2873 117.51 55.4661 117.956 54.8432 118.736C54.4468 119.238 54.1919 119.935 53.6823 120.353C52.2099 121.552 50.9073 119.879 50.3127 118.736C48.8686 116.116 47.4529 113.384 44.593 112.018C42.2428 110.903 39.383 111.015 37.4009 112.771C37.0045 113.133 37.5991 113.746 37.9955 113.384Z" fill="#E8E8E8"/>
<path fill-rule="evenodd" clip-rule="evenodd" d="M228.587 75.8635C228.021 74.3582 227.341 72.5742 228.36 71.0968C229.295 69.7866 230.88 70.4556 232.211 70.0375C233.967 69.48 235.043 67.7796 235.524 66.1349C236.09 64.2115 235.411 61.7027 236.572 60.0023C237.988 57.9116 241.046 60.4762 242.971 59.1939C243.424 58.8872 242.999 58.1625 242.546 58.4691C240.593 59.7793 237.931 57.1032 236.09 59.2496C234.618 60.95 235.298 63.5425 234.816 65.5495C234.477 66.9433 233.712 68.4207 232.381 69.0897C231.22 69.6751 229.889 69.0897 228.728 69.6751C226.237 70.9295 227.03 74.0516 227.794 76.0865C227.936 76.5604 228.757 76.3653 228.587 75.8635Z" fill="#E8E8E8"/>
<path fill-rule="evenodd" clip-rule="evenodd" d="M231.645 56.3226C231.107 54.9288 231.418 53.3399 232.466 52.2248C233.769 50.8311 235.269 51.3886 236.883 50.8311C237.846 50.4966 238.412 49.6882 238.78 48.7961C239.007 48.2386 239.149 47.6532 239.347 47.0957C239.517 46.6497 239.715 46.148 240.055 45.8134C240.564 45.3396 241.782 44.9493 242.093 46.0086C242.263 46.5103 243.056 46.3152 242.915 45.7856C242.546 44.6148 241.159 44.1967 240.083 44.7542C238.044 45.7856 238.78 48.8519 236.883 49.8833C235.836 50.4408 234.533 50.1063 233.429 50.5523C232.721 50.8589 232.098 51.3607 231.617 51.9461C230.569 53.2562 230.229 54.9845 230.824 56.5456C230.994 57.0473 231.815 56.8243 231.645 56.3226Z" fill="#E8E8E8"/>
<path fill-rule="evenodd" clip-rule="evenodd" d="M255.487 86.0939C254.637 84.8952 254.892 83.1948 255.996 82.1913C257.27 81.0205 259.111 81.5502 259.989 82.8882C261.999 85.8709 257.554 88.4912 255.43 86.0103C255.062 85.5921 254.467 86.2054 254.835 86.5957C256.053 88.0173 258.318 88.1846 259.875 87.181C261.631 86.066 261.773 83.8081 260.555 82.2192C259.366 80.6581 257.157 80.1285 255.572 81.4108C254.071 82.6094 253.618 84.8952 254.75 86.4842C255.062 86.958 255.798 86.5399 255.487 86.0939Z" fill="#E8E8E8"/>
<path fill-rule="evenodd" clip-rule="evenodd" d="M258.686 90.7212C257.893 89.634 256.902 88.3239 257.242 86.9301C257.752 84.8673 260.244 85.397 261.376 86.6235C262.311 87.6549 262.65 89.2717 261.461 90.2473C260.555 91 259.168 91.1393 258.346 90.2473C257.978 89.8571 257.384 90.4424 257.752 90.8327C258.884 92.0314 260.81 91.9199 262.027 90.8885C263.472 89.6619 263.302 87.627 262.169 86.2611C261.036 84.8673 258.46 83.8638 257.044 85.4527C255.458 87.2367 256.789 89.5504 257.95 91.1393C258.262 91.5853 258.998 91.1672 258.686 90.7212Z" fill="#E8E8E8"/>
<path fill-rule="evenodd" clip-rule="evenodd" d="M68.2647 148.814C71.436 149.762 74.664 150.319 77.9486 150.431C78.4866 150.459 78.4866 149.622 77.9486 149.594C74.7206 149.483 71.5493 148.953 68.4912 148.006C67.9532 147.838 67.7267 148.647 68.2647 148.814Z" fill="#E8E8E8"/>
<path fill-rule="evenodd" clip-rule="evenodd" d="M280.631 126.514C299.885 126.374 318.007 133.455 336.186 138.695C341.396 140.201 346.662 141.566 351.986 142.598C352.524 142.709 352.75 141.901 352.212 141.789C333.326 138.11 315.515 130.221 296.516 127.015C291.277 126.123 285.954 125.622 280.631 125.677C280.093 125.677 280.093 126.514 280.631 126.514Z" fill="#E8E8E8"/>
<path fill-rule="evenodd" clip-rule="evenodd" d="M91.3418 5.64463C92.3329 7.98618 93.5505 13.1711 97.1182 10.8574C98.3075 10.1047 100.063 7.90256 101.337 9.6866C102.102 10.7459 102.158 12.1397 103.602 12.6135C104.112 12.7808 104.339 11.9724 103.829 11.8051C102.498 11.3591 102.498 9.35209 101.422 8.5437C100.714 8.01406 99.8365 8.04193 99.072 8.43219C97.9394 8.96183 97.1182 10.1605 95.929 10.5507C93.8053 11.2476 92.7293 6.75965 92.163 5.42162C91.9365 4.94774 91.1153 5.14287 91.3418 5.64463Z" fill="#E8E8E8"/>
<path fill-rule="evenodd" clip-rule="evenodd" d="M100.148 6.1464C101.734 4.94775 104.055 5.50526 104.848 7.31718C105.33 8.46008 105.698 9.1291 107.057 9.21272C107.708 9.2406 108.416 9.01759 109.067 9.1291C110.426 9.3521 110.426 10.5229 110.653 11.61C110.88 12.6972 111.389 13.645 112.578 13.7843C113.116 13.8401 113.116 13.0038 112.578 12.9481C111.021 12.7808 111.672 9.63086 110.455 8.73884C109.152 7.79106 107.199 9.04547 106.179 7.87469C105.698 7.31718 105.556 6.56454 105.047 6.00702C104.65 5.53314 104.112 5.19863 103.517 4.97562C102.243 4.47386 100.828 4.64112 99.7515 5.44951C99.2702 5.75614 99.6949 6.48091 100.148 6.1464Z" fill="#E8E8E8"/>
<path fill-rule="evenodd" clip-rule="evenodd" d="M125.632 32.4332C127.416 32.7955 129.313 31.6805 129.794 29.8965C130.247 28.2239 129.143 26.635 127.529 26.1054C123.763 24.851 121.668 29.9522 124.726 32.0429C125.179 32.3495 125.604 31.6248 125.151 31.3181C122.999 29.8407 124.329 26.1333 127.076 26.8302C128.265 27.1368 129.256 28.1961 129.03 29.4505C128.775 30.8721 127.302 31.9035 125.858 31.5969C125.32 31.5133 125.094 32.3217 125.632 32.4332Z" fill="#E8E8E8"/>
<path fill-rule="evenodd" clip-rule="evenodd" d="M128.378 33.8549C127.699 33.3253 126.878 32.7399 126.595 31.8758C126.198 30.705 127.331 29.3112 128.662 29.6457C129.596 29.8966 130.247 30.9559 130.021 31.9036C129.738 32.9629 128.52 33.4925 127.501 33.2417C126.963 33.1023 126.736 33.9107 127.274 34.0501C128.662 34.3846 130.191 33.7434 130.757 32.4054C131.295 31.0952 130.559 29.5063 129.256 28.9488C127.954 28.4192 126.453 29.1161 125.887 30.3426C125.094 32.043 126.538 33.4647 127.812 34.4403C128.18 34.7748 128.803 34.1894 128.378 33.8549Z" fill="#E8E8E8"/>
<path fill-rule="evenodd" clip-rule="evenodd" d="M71.8891 88.9093C70.5866 87.7664 70.3318 86.0381 71.606 84.7558C72.7103 83.6687 74.3526 83.6966 75.4002 84.8395C77.5805 87.2368 74.4375 90.3588 71.8608 88.7142C71.4077 88.4075 70.983 89.1323 71.4361 89.4389C72.9651 90.4146 75.0604 90.0801 76.2497 88.7421C77.4673 87.3483 77.0992 85.2576 75.7966 84.0311C74.4092 82.7488 72.3422 82.8324 71.0113 84.1426C69.3973 85.7315 69.6522 88.0452 71.2945 89.4947C71.6909 89.8571 72.2855 89.2717 71.8891 88.9093Z" fill="#E8E8E8"/>
<path fill-rule="evenodd" clip-rule="evenodd" d="M192.598 10.1048C194.24 6.56458 196.534 3.41464 199.365 0.710697C199.762 0.348313 199.167 -0.264951 198.771 0.125308C195.883 2.885 193.561 6.0907 191.862 9.71453C191.635 10.1605 192.371 10.6066 192.598 10.1048Z" fill="#E8E8E8"/>
<path fill-rule="evenodd" clip-rule="evenodd" d="M196.137 9.54727C197.836 7.48447 199.733 5.56105 201.772 3.80488C202.197 3.4425 201.574 2.85711 201.178 3.2195C199.139 4.97566 197.27 6.89908 195.543 8.96188C195.203 9.38002 195.798 9.9654 196.137 9.54727Z" fill="#E8E8E8"/>
<path fill-rule="evenodd" clip-rule="evenodd" d="M198.289 12.0561C199.054 11.4149 199.818 10.8017 200.583 10.1605C201.008 9.82602 200.385 9.21276 199.988 9.57514C199.224 10.2163 198.459 10.8295 197.695 11.4707C197.27 11.8052 197.865 12.3906 198.289 12.0561Z" fill="#E8E8E8"/>
<ellipse cx="238.356" cy="10.4394" rx="4.13406" ry="4.06985" fill="#5222D0"/>
<ellipse cx="236.459" cy="18.4118" rx="2.46345" ry="2.42518" fill="#5222D0"/>
<ellipse cx="105.953" cy="125.984" rx="3.02975" ry="2.98269" fill="#5222D0"/>
<ellipse cx="110.88" cy="135.489" rx="1.67061" ry="1.64466" fill="#5222D0"/>
<path fill-rule="evenodd" clip-rule="evenodd" d="M140.384 92.1151C140.639 94.5403 141.432 96.6867 144.235 96.631C145.198 96.631 146.019 96.3522 146.755 97.077C147.435 97.746 147.237 98.415 147.52 99.2513C147.661 99.6694 147.86 100.06 148.256 100.338C148.766 100.701 150.691 100.701 150.521 101.537C150.408 102.067 151.229 102.29 151.342 101.76C151.541 100.812 150.889 100.255 149.983 100.004C148.681 99.6416 148.369 99.1398 148.171 97.9969C148.086 97.4673 147.973 96.9376 147.605 96.4916C146.869 95.6275 145.679 95.739 144.66 95.7668C143.556 95.8226 142.508 95.739 141.913 94.6797C141.46 93.8992 141.347 92.9514 141.262 92.0873C141.177 91.5855 140.328 91.5855 140.384 92.1151Z" fill="#5222D0"/>
<path fill-rule="evenodd" clip-rule="evenodd" d="M143.272 102.373C144.745 100.84 146.5 102.401 146.953 103.934C147.152 104.548 147.18 105.133 147.633 105.607C148.652 106.722 150.521 106.109 151.456 107.279C151.795 107.697 152.39 107.112 152.05 106.694C151.427 105.913 150.55 105.802 149.615 105.607C148.737 105.412 148.256 105.105 147.916 104.241C147.69 103.711 147.661 103.154 147.35 102.624C146.387 100.924 144.122 100.255 142.678 101.76C142.281 102.178 142.876 102.763 143.272 102.373Z" fill="#5222D0"/>
<path fill-rule="evenodd" clip-rule="evenodd" d="M243.849 99.5576C243.311 98.5541 244.444 97.8014 245.293 98.4147C245.548 98.582 245.944 98.359 245.944 98.0523C245.859 97.1045 246.822 96.4077 247.728 96.7422C248.238 96.9373 248.464 96.1289 247.955 95.9338C246.539 95.4041 244.982 96.5749 245.095 98.0523C245.321 97.9408 245.52 97.8014 245.746 97.6899C244.132 96.547 242.235 98.3032 243.141 99.9757C243.368 100.45 244.104 100.031 243.849 99.5576Z" fill="#5222D0"/>
<path fill-rule="evenodd" clip-rule="evenodd" d="M248.663 99.1117C248.464 98.6378 249.824 98.5542 250.05 98.5542C250.758 98.5821 251.438 98.6936 252.145 98.7493C252.683 98.8051 252.683 97.9688 252.145 97.9131C251.041 97.8016 249.795 97.4949 248.719 97.9409C248.011 98.2476 247.615 98.8051 247.926 99.5299C248.125 100.032 248.861 99.5856 248.663 99.1117Z" fill="#5222D0"/>
<ellipse cx="101.111" cy="129.273" rx="3.34122" ry="3.28933" fill="#EC615B"/>
<ellipse cx="132.739" cy="4.83628" rx="4.50216" ry="4.43223" fill="#EC615B"/>
<ellipse cx="51.1339" cy="175.017" rx="5.69141" ry="5.60301" fill="#EC615B"/>
<ellipse cx="245.406" cy="157.985" rx="2.91649" ry="2.87119" fill="#EC615B"/>
<path fill-rule="evenodd" clip-rule="evenodd" d="M212.957 226.169C218.96 224.748 224.991 223.298 230.994 221.876C234.845 222.155 240.564 222.239 247.36 221.124C253.816 220.064 266.19 217.082 266.105 213.792C266.048 211.618 260.527 210.057 251.409 207.465C245.378 205.764 240.31 204.761 236.94 204.175C233.202 205.987 229.182 207.771 224.849 209.472C218.988 211.785 213.41 213.597 208.228 215.019C209.785 218.754 211.371 222.462 212.957 226.169Z" fill="#161616" stroke="#161616" stroke-width="3"/>
<path fill-rule="evenodd" clip-rule="evenodd" d="M198.12 220.51C204.122 219.089 210.154 217.639 216.157 216.218C220.007 216.496 225.727 216.58 232.523 215.465C238.979 214.406 251.353 211.423 251.268 208.134C251.211 205.959 245.69 204.398 236.572 201.806C230.541 200.106 225.472 199.102 222.103 198.517C218.365 200.329 214.344 202.113 210.012 203.813C204.151 206.127 198.573 207.939 193.391 209.36C194.948 213.123 196.534 216.831 198.12 220.51Z" fill="#161616" stroke="#161616" stroke-width="3"/>
<path fill-rule="evenodd" clip-rule="evenodd" d="M167.142 169.024C161.791 171.867 157.175 175.017 156.382 175.547C153.664 177.415 147.322 181.791 141.036 188.175C131.748 197.597 123.933 205.513 124.443 215.548C124.896 224.58 131.833 230.852 132.598 231.521C144.971 242.393 171.418 238.434 198.119 221.681C197.157 216.691 196.222 211.73 195.26 206.74C197.638 206.266 203.018 204.844 207.917 200.3C214.004 194.642 215.364 187.784 215.703 185.554C215.675 183.018 215.364 180.035 214.486 176.801C211.796 166.878 205.397 160.606 201.999 157.734C193.193 159.24 179.941 162.278 167.142 169.024Z" fill="white" stroke="#161616" stroke-width="3"/>
<path fill-rule="evenodd" clip-rule="evenodd" d="M187.388 174.237C181.951 177.136 177.109 180.425 176.628 180.76C169.606 185.582 164.651 190.209 161.281 193.387C149.247 204.76 140.696 212.482 141.828 221.848C142.933 230.852 152.079 236.288 152.843 236.706C158.195 239.772 163.631 239.856 167.992 239.633C187.586 238.629 209.559 230.406 218.365 226.866C217.402 221.876 216.468 216.914 215.505 211.925C217.884 211.144 224.623 208.524 229.068 201.611C229.748 200.551 232.126 196.677 232.778 191.129C232.976 189.54 233.202 186.195 231.419 179.254C230.314 174.961 228.332 168.968 224.623 162.167C216.808 163.532 201.546 166.71 187.388 174.237Z" fill="white" stroke="#161616" stroke-width="3"/>
<path fill-rule="evenodd" clip-rule="evenodd" d="M184.811 217.249C195.316 217.5 205.793 215.939 215.732 212.622C216.241 212.454 216.015 211.646 215.505 211.813C205.623 215.13 195.26 216.691 184.811 216.413C184.273 216.385 184.273 217.221 184.811 217.249Z" fill="#161616"/>
<path fill-rule="evenodd" clip-rule="evenodd" d="M182.065 214.322C182.773 215.521 183.849 216.468 185.151 216.998C185.661 217.193 186.085 216.496 185.576 216.273C184.386 215.771 183.452 214.991 182.801 213.904C182.518 213.43 181.781 213.848 182.065 214.322Z" fill="#161616"/>
<path opacity="0.12" fill-rule="evenodd" clip-rule="evenodd" d="M199.903 193.666C190.05 199.102 184.953 198.21 175.156 205.736C172.607 207.715 157.713 219.172 159.61 230.796C159.78 231.772 160.658 237.236 164.792 239.382C166.548 240.302 168.275 240.246 170.682 240.079C178.752 239.466 184.981 237.96 185.746 237.765C195.656 235.34 193.985 236.344 200.809 234.532C205.312 233.333 211.399 231.438 218.478 228.511C217.544 223.632 216.581 218.782 215.647 213.904C217.714 212.956 220.545 211.367 223.434 208.803C225.529 206.935 231.503 201.638 232.863 193.276C233.599 188.788 232.693 185.359 231.22 179.812C229.72 174.153 227.624 169.749 226.039 166.822C217.204 182.07 207.294 189.624 199.903 193.666Z" fill="#3D3D3D"/>
<path opacity="0.11" fill-rule="evenodd" clip-rule="evenodd" d="M189.313 169.609C188.917 168.94 176.458 174.516 162.215 184.69C144.603 197.262 134.834 204.705 134.41 215.298C133.928 227.647 151.116 237.961 151.852 237.319C152.248 236.957 141.885 229.904 141.715 219.702C141.602 213.04 145.906 207.771 153.494 200.217C172.89 180.899 189.795 170.418 189.313 169.609Z" fill="#3D3D3D"/>
<path opacity="0.12" fill-rule="evenodd" clip-rule="evenodd" d="M229.351 175.658C228.049 180.732 225.359 188.23 219.469 195.617C206.926 211.311 189.115 214.935 183.905 215.799C184.783 216.636 185.632 217.583 186.51 218.587C191.211 224.162 193.532 230.127 194.75 234.811C202.452 232.19 210.154 229.542 217.827 226.922C216.638 222.294 215.477 217.639 214.288 213.012C216.723 212.036 220.687 210.057 224.425 206.294C225.982 204.705 229.748 200.83 231.503 194.698C234.052 185.61 230.484 177.861 229.351 175.658Z" fill="#3D3D3D"/>
<path fill-rule="evenodd" clip-rule="evenodd" d="M168.133 94.7631C170.512 95.0977 171.531 102.094 171.871 104.408C173.259 113.802 170.314 118.011 169.861 129.524C169.493 138.667 171.191 139.085 170.427 143.546C169.294 150.068 164.056 158.431 145.453 166.013C144.065 167.491 141.602 169.804 138.034 171.282C130.53 174.404 120.677 172.787 119.346 168.299C118.893 166.794 119.318 164.703 120.365 163.728C122.064 162.111 124.669 164.424 128.973 162.891C129.2 162.808 131.125 162.111 131.068 161.609C131.04 161.302 130.304 161.191 129.426 161.079C125.434 160.522 124.244 160.633 124.159 160.299C124.018 159.741 127.076 157.818 131.04 156.703C134.098 155.839 138.232 155.086 143.329 155.337C147.775 150.403 152.248 145.469 156.694 140.535C156.269 134.179 156.354 125.12 158.789 114.834C160.573 107.363 164.792 94.2893 168.133 94.7631Z" fill="white" stroke="#161616" stroke-width="3"/>
<path opacity="0.12" fill-rule="evenodd" clip-rule="evenodd" d="M168.247 94.6238C164.764 94.6796 161.621 108.311 160.97 117.984C160.148 130.221 163.405 134.04 160.97 141.539C159.356 146.5 155.278 152.884 144.32 158.682C135.684 165.79 129.936 166.543 126.142 165.651C123.82 165.121 120.932 163.644 119.629 164.898C118.525 165.958 119.034 168.578 120.195 170.362C122.97 174.515 131.323 173.512 136.08 171.867C140.497 170.334 143.414 167.658 145.085 165.846C148.964 164.815 158.025 161.832 165.557 153.414C172.89 145.218 174.618 136.493 175.495 131.754C178.865 113.719 172.494 94.5402 168.247 94.6238Z" fill="#3D3D3D"/>
<path fill-rule="evenodd" clip-rule="evenodd" d="M211.201 78.5952C221.282 80.6858 228.927 89.0764 232.24 96.798C235.892 105.272 233.769 111.907 231.73 125.928C230.342 135.545 228.842 149.399 228.842 166.71C225.784 168.996 211.314 179.421 191.607 176.773C179.091 175.101 170.54 168.996 166.774 165.902C167.397 161.442 168.02 154.528 167.284 146.166C166.208 134.402 163.32 129.803 162.782 120.492C162.442 114.61 162.952 105.941 167.539 95.0697C170.115 93.3414 173.768 91.0556 178.327 88.6583C192.485 81.2155 201.347 76.5602 211.201 78.5952Z" fill="#EC615B"/>
<path opacity="0.14" fill-rule="evenodd" clip-rule="evenodd" d="M201.404 91.6134C204.009 98.4708 207.69 111.182 205.736 126.904C202.48 153.023 185.859 169.163 180.705 173.791C184.84 175.408 193.391 178.084 204.292 176.857C216.609 175.463 225.047 169.832 228.587 167.156C228.275 155.56 228.983 145.915 229.776 138.751C232.211 117.175 236.6 109.398 231.928 97.5509C230.824 94.7355 227.114 85.3135 217.742 80.9649C215.279 79.822 213.042 79.3202 211.484 79.0693C210.918 81.0485 209.616 84.5887 206.444 87.8223C204.689 89.6621 202.848 90.8329 201.404 91.6134Z" fill="#3D3D3D"/>
<path opacity="0.21" fill-rule="evenodd" clip-rule="evenodd" d="M232.919 101.565C225.472 121.468 217.997 141.343 210.55 161.247C204.066 166.459 197.553 171.672 191.069 176.885C195.911 177.303 203.613 177.331 212.475 174.766C219.837 172.62 225.416 169.442 229.068 166.961C228.983 164.006 228.927 159.658 229.068 154.417C229.465 141.26 229.635 134.681 231.475 126.709C233.174 119.35 235.467 113.747 233.882 105.384C233.57 103.711 233.202 102.401 232.919 101.565Z" fill="#3D3D3D"/>
<path fill-rule="evenodd" clip-rule="evenodd" d="M112.947 159.128C116.316 167.156 119.714 175.184 123.083 183.185C136.788 178.502 150.521 173.791 164.226 169.108C160.941 161.386 157.657 153.637 154.4 145.915C140.582 150.319 126.764 154.724 112.947 159.128Z" fill="white" stroke="#161616" stroke-width="3"/>
<path fill-rule="evenodd" clip-rule="evenodd" d="M108.529 132.59C113.116 135.88 118.61 140.479 124.018 146.668C128.407 151.685 131.691 156.563 134.155 160.745C139.535 152.521 144.886 144.298 150.266 136.103C144.009 129.245 137.751 122.416 131.493 115.558C123.82 121.245 116.174 126.904 108.529 132.59Z" fill="white" stroke="#161616" stroke-width="3"/>
<path fill-rule="evenodd" clip-rule="evenodd" d="M83.725 94.345C83.725 101.871 83.725 109.398 83.725 116.952C89.5863 114.109 95.4476 111.266 101.309 108.45C105.188 106.582 109.067 104.715 112.947 102.875C111.842 97.3835 110.766 91.9198 109.662 86.4283C101.026 89.0487 92.3895 91.6968 83.725 94.345Z" fill="white" stroke="#161616" stroke-width="3"/>
<path fill-rule="evenodd" clip-rule="evenodd" d="M66.6507 46.2873C69.5389 53.0332 72.4271 59.7792 75.2869 66.5251C85.5088 60.7548 95.759 54.9845 105.981 49.2143C101.705 41.1861 97.4296 33.1579 93.154 25.1576C90.464 28.2239 87.2078 31.5411 83.3285 34.8304C77.4106 39.9038 71.6059 43.5834 66.6507 46.2873Z" fill="white" stroke="#161616" stroke-width="3"/>
<path fill-rule="evenodd" clip-rule="evenodd" d="M24.3191 55.0961C23.413 60.281 22.5352 65.4659 21.6291 70.6507C32.0492 68.3092 42.4976 65.9676 52.9177 63.5982C52.7195 57.9116 52.5213 52.2528 52.3231 46.5662C43.0073 49.4095 33.6632 52.2528 24.3191 55.0961Z" fill="white" stroke="#161616" stroke-width="3"/>
<path fill-rule="evenodd" clip-rule="evenodd" d="M113.258 159.825C123.055 161.247 132.767 163.031 142.395 165.177C142.933 165.289 143.159 164.48 142.621 164.369C132.966 162.222 123.253 160.41 113.484 159.017C112.946 158.961 112.72 159.769 113.258 159.825Z" fill="#161616"/>
<path fill-rule="evenodd" clip-rule="evenodd" d="M153.834 146.305C150.691 152.744 146.868 158.849 142.423 164.48C142.083 164.898 142.678 165.484 143.017 165.065C147.52 159.379 151.399 153.218 154.57 146.723C154.797 146.249 154.061 145.831 153.834 146.305Z" fill="#161616"/>
<path fill-rule="evenodd" clip-rule="evenodd" d="M115.552 134.263C120.309 129.301 125.604 124.869 131.38 121.078C131.833 120.771 131.408 120.046 130.955 120.353C125.122 124.2 119.771 128.66 114.957 133.678C114.561 134.04 115.183 134.653 115.552 134.263Z" fill="#161616"/>
<path fill-rule="evenodd" clip-rule="evenodd" d="M119.657 136.772C123.225 132.897 127.161 129.385 131.408 126.291C131.833 125.984 131.408 125.259 130.983 125.566C126.651 128.716 122.659 132.256 119.063 136.186C118.666 136.577 119.261 137.162 119.657 136.772Z" fill="#161616"/>
<path fill-rule="evenodd" clip-rule="evenodd" d="M123.225 141.455C127.84 136.354 132.909 131.643 138.402 127.433C138.827 127.099 138.232 126.514 137.807 126.848C132.343 131.057 127.246 135.74 122.63 140.87C122.262 141.26 122.885 141.845 123.225 141.455Z" fill="#161616"/>
<path fill-rule="evenodd" clip-rule="evenodd" d="M129.285 147.114C130.898 144.549 133.05 142.375 135.174 140.201C137.496 137.887 139.818 135.545 142.14 133.232C142.536 132.841 141.913 132.256 141.545 132.646C139.11 135.099 136.675 137.525 134.24 139.978C132.144 142.068 130.134 144.215 128.548 146.696C128.265 147.142 129.001 147.56 129.285 147.114Z" fill="#161616"/>
<path fill-rule="evenodd" clip-rule="evenodd" d="M121.951 171.365C122.46 173.651 123.31 175.798 124.471 177.805C124.726 178.279 125.462 177.86 125.207 177.387C124.074 175.407 123.253 173.345 122.772 171.142C122.659 170.613 121.838 170.836 121.951 171.365Z" fill="#161616"/>
<path fill-rule="evenodd" clip-rule="evenodd" d="M122.63 171.867C125.462 170.195 128.52 169.163 131.776 168.717C131.606 168.634 131.437 168.522 131.267 168.438C131.833 170.25 132.371 172.034 132.937 173.846C133.107 174.348 133.928 174.153 133.758 173.623C133.192 171.811 132.654 170.027 132.088 168.215C132.003 167.965 131.805 167.881 131.578 167.937C128.237 168.383 125.122 169.47 122.234 171.17C121.724 171.421 122.149 172.146 122.63 171.867Z" fill="#161616"/>
<path fill-rule="evenodd" clip-rule="evenodd" d="M125.009 178.139C127.699 177.052 130.332 175.825 132.937 174.515C133.419 174.264 132.994 173.54 132.513 173.791C129.992 175.073 127.416 176.244 124.782 177.331C124.273 177.554 124.499 178.362 125.009 178.139Z" fill="#161616"/>
<path fill-rule="evenodd" clip-rule="evenodd" d="M146.67 165.567C149.785 163.923 153.098 162.78 156.552 162.083C157.09 161.971 156.864 161.163 156.326 161.274C152.786 161.971 149.417 163.17 146.245 164.843C145.736 165.093 146.189 165.818 146.67 165.567Z" fill="#161616"/>
<path fill-rule="evenodd" clip-rule="evenodd" d="M147.69 167.965C149.587 167.156 151.484 166.348 153.353 165.539C153.862 165.316 153.409 164.592 152.928 164.815C151.031 165.623 149.134 166.431 147.265 167.24C146.755 167.463 147.208 168.16 147.69 167.965Z" fill="#161616"/>
<path fill-rule="evenodd" clip-rule="evenodd" d="M86.2733 97.272C93.0124 95.0698 99.7515 92.3938 106.745 91.0557C107.283 90.9442 107.057 90.1358 106.519 90.2473C99.5533 91.6133 92.7859 94.2614 86.0468 96.4636C85.5371 96.6309 85.7637 97.4393 86.2733 97.272Z" fill="#161616"/>
<path fill-rule="evenodd" clip-rule="evenodd" d="M86.16 100.868C92.616 97.9408 99.2984 95.5714 106.151 93.7874C106.689 93.648 106.462 92.8396 105.924 92.979C98.9869 94.7909 92.2479 97.1882 85.7353 100.143C85.2539 100.366 85.6787 101.091 86.16 100.868Z" fill="#161616"/>
<path fill-rule="evenodd" clip-rule="evenodd" d="M85.6504 104.492C88.482 103.349 91.2569 102.122 94.0035 100.812C94.4848 100.589 94.0601 99.8644 93.5787 100.087C90.8888 101.37 88.1705 102.568 85.4239 103.683C84.9425 103.878 85.1407 104.687 85.6504 104.492Z" fill="#161616"/>
<path fill-rule="evenodd" clip-rule="evenodd" d="M87.2077 107.502C93.1823 104.52 99.2984 101.788 105.528 99.3626C106.038 99.1675 105.811 98.3591 105.301 98.5542C98.987 101.007 92.8142 103.767 86.783 106.778C86.2733 107.028 86.7264 107.753 87.2077 107.502Z" fill="#161616"/>
<path fill-rule="evenodd" clip-rule="evenodd" d="M70.2468 48.0157C78.2884 44.1689 85.7637 39.3185 92.5594 33.6319C92.9841 33.2695 92.3612 32.6841 91.9648 33.0465C85.2257 38.7053 77.7787 43.472 69.8221 47.3189C69.3124 47.5419 69.7371 48.2666 70.2468 48.0157Z" fill="#161616"/>
<path fill-rule="evenodd" clip-rule="evenodd" d="M71.974 51.6395C75.3436 49.716 78.5715 47.5975 81.6862 45.2838C82.111 44.9772 81.6862 44.2245 81.2615 44.559C78.1468 46.8727 74.9188 48.9913 71.5493 50.9147C71.0679 51.1935 71.4927 51.9182 71.974 51.6395Z" fill="#161616"/>
<path fill-rule="evenodd" clip-rule="evenodd" d="M74.126 54.1762C81.3748 50.3572 88.3404 46.1201 95.0512 41.437C95.5042 41.1304 95.0795 40.4056 94.6264 40.7123C87.944 45.3954 80.95 49.6325 73.7013 53.4514C73.2199 53.7023 73.6447 54.4271 74.126 54.1762Z" fill="#161616"/>
<path fill-rule="evenodd" clip-rule="evenodd" d="M75.9382 58.4967C83.9515 54.9287 91.5966 50.6358 98.7888 45.6182C99.2418 45.3116 98.8171 44.5868 98.364 44.8934C91.2002 49.911 83.5551 54.2039 75.5135 57.772C75.0038 57.995 75.4285 58.6919 75.9382 58.4967Z" fill="#161616"/>
<path opacity="0.13" fill-rule="evenodd" clip-rule="evenodd" d="M115.325 127.963C118.355 127.294 121.385 126.625 124.414 125.956C128.718 134.876 133.022 143.796 137.326 152.689C141.63 147.197 145.934 141.734 150.238 136.242C143.895 129.524 137.553 122.778 131.238 116.06C125.915 120.046 120.62 124.005 115.325 127.963Z" fill="#3D3D3D"/>
<path opacity="0.21" fill-rule="evenodd" clip-rule="evenodd" d="M93.0691 92.3937C91.4834 99.5577 89.8977 106.75 88.3121 113.914C96.4103 110.095 104.509 106.248 112.635 102.429C111.446 97.3555 110.285 92.2543 109.096 87.1809C103.744 88.9371 98.3924 90.6654 93.0691 92.3937Z" fill="#3D3D3D"/>
<path opacity="0.08" fill-rule="evenodd" clip-rule="evenodd" d="M129.596 154.305C131.182 158.096 132.767 161.888 134.353 165.679C136.986 166.264 139.591 166.849 142.225 167.407C145.085 169.358 147.916 171.337 150.776 173.289C155.108 171.811 159.469 170.334 163.801 168.884C160.488 161.497 157.204 154.082 153.891 146.695C149.558 147.978 145.198 149.288 140.866 150.57C138.6 154.138 136.335 157.706 134.07 161.274C132.569 158.933 131.097 156.619 129.596 154.305Z" fill="#3D3D3D"/>
<path opacity="0.15" fill-rule="evenodd" clip-rule="evenodd" d="M29.6424 55.4306C28.2833 60.0859 26.9524 64.769 25.5933 69.4242C34.6259 67.3614 43.6586 65.2986 52.6912 63.2358C52.3797 57.8837 52.0966 52.5316 51.7851 47.1794C44.3948 49.9391 37.0044 52.6988 29.6424 55.4306Z" fill="#3D3D3D"/>
<path opacity="0.11" fill-rule="evenodd" clip-rule="evenodd" d="M79.4776 39.5136C80.5253 54.5664 81.3181 62.065 81.8844 62.065C82.0543 62.065 82.1959 61.3123 82.3375 59.8628C89.7561 56.1832 97.2031 52.5036 104.622 48.824C100.884 41.9387 97.1465 35.0813 93.4088 28.196C88.7368 31.9593 84.0931 35.7503 79.4776 39.5136Z" fill="#3D3D3D"/>
<path fill-rule="evenodd" clip-rule="evenodd" d="M225.784 89.8292C229.606 89.3274 234.25 100.255 236.232 106.778C239.573 117.816 238.384 127.489 237.251 136.465C236.034 146.027 235.439 150.821 233.117 155.839C225.614 172.062 206.756 178.279 199.365 180.286C197.355 181.735 193.759 184.049 188.804 185.554C178.299 188.732 164.509 187.366 162.612 182.042C161.989 180.258 162.584 177.805 164.028 176.662C166.434 174.766 170.031 177.47 176.09 175.658C176.402 175.575 179.091 174.738 179.007 174.153C178.95 173.791 177.959 173.679 176.713 173.54C171.135 172.899 169.464 173.01 169.351 172.62C169.181 171.951 173.457 169.721 178.978 168.383C183.282 167.351 189.059 166.459 196.194 166.766C203.16 160.466 210.125 154.138 217.091 147.838C217.034 132.451 218.28 119.768 219.554 110.457C222.216 91.5575 224.509 89.9964 225.784 89.8292Z" fill="white" stroke="#161616" stroke-width="3"/>
<path fill-rule="evenodd" clip-rule="evenodd" d="M162.187 181.819C163.263 182.962 165.245 183.296 166.689 183.714C168.813 184.3 170.993 184.746 173.202 185.024C173.74 185.108 173.966 184.3 173.428 184.216C171.588 183.965 169.747 183.631 167.935 183.157C166.378 182.767 163.886 182.432 162.782 181.206C162.414 180.843 161.819 181.429 162.187 181.819Z" fill="#161616"/>
<path fill-rule="evenodd" clip-rule="evenodd" d="M162.669 179.282C166.208 181.429 170.172 182.627 174.334 182.822C174.872 182.85 174.872 182.014 174.334 181.986C170.314 181.819 166.519 180.648 163.093 178.557C162.64 178.279 162.187 179.003 162.669 179.282Z" fill="#161616"/>
<path fill-rule="evenodd" clip-rule="evenodd" d="M164.169 177.331C168.133 179.31 172.437 180.342 176.883 180.342C177.421 180.342 177.421 179.505 176.883 179.505C172.579 179.505 168.417 178.53 164.594 176.606C164.113 176.355 163.688 177.08 164.169 177.331Z" fill="#161616"/>
<path opacity="0.15" fill-rule="evenodd" clip-rule="evenodd" d="M224.311 91.0557C226.86 96.5193 230.229 105.384 231.22 116.729C231.956 125.231 233.174 139.727 224.311 154.166C215.59 168.355 202.367 173.986 197.468 176.049C192.541 178.139 184.273 181.54 173.542 180.425C169.209 179.979 165.698 178.92 163.263 178C162.725 179.171 162.215 180.843 162.81 182.376C164.736 187.366 176.741 187.282 183.197 186.307C186.793 185.777 192.768 184.356 199.45 179.979C207.492 177.637 227.483 170.669 233.485 154.919C235.241 150.319 236.289 143.713 236.855 140.117C237.648 135.043 238.809 127.433 238.073 117.621C238.073 117.621 236.997 103.433 229.012 91.8084C228.644 91.2508 227.794 90.0801 226.548 89.9964C225.585 89.9407 224.736 90.6376 224.311 91.0557Z" fill="#3D3D3D"/>
<path opacity="0.09" fill-rule="evenodd" clip-rule="evenodd" d="M237.506 128.353C236.657 128.214 234.845 137.468 232.919 143.294C229.578 153.385 221.423 166.738 199.79 179.979C204.689 178.892 211.654 176.606 218.648 171.672C222.188 169.163 228.162 164.954 232.296 157.177C235.156 151.797 235.921 146.974 236.883 140.73C237.761 135.238 238.214 128.465 237.506 128.353Z" fill="#3D3D3D"/>
<path fill-rule="evenodd" clip-rule="evenodd" d="M159.327 38.6217C159.186 45.061 159.044 51.4724 158.903 57.9116C156.92 66.0513 160.007 74.3025 166.434 78.4839C173.428 83.0276 181.243 80.7418 182.376 80.3794C182.433 81.9405 182.376 83.8918 181.951 86.0939C181.583 88.1289 180.989 89.8293 180.451 91.1673C183.905 94.3451 187.105 95.1535 188.86 95.4044C197.185 96.6031 206.699 90.0244 211.683 78.6511C210.182 77.0901 208.171 74.7485 206.303 71.6543C205.227 69.8982 202.735 65.466 201.347 59.1382C199.932 52.671 201.319 51.8069 200.271 47.068C199.082 41.6601 195.656 35.5275 191.012 32.4333C183.197 27.3321 170.059 29.59 159.327 38.6217Z" fill="white" stroke="#161616" stroke-width="3"/>
<path fill-rule="evenodd" clip-rule="evenodd" d="M158.166 60.4482C156.184 61.5075 156.043 64.6296 155.844 68.7552C155.646 72.602 155.448 77.2015 158.393 81.801C160.63 85.3133 163.66 87.0416 164.905 87.7385C171.361 91.3623 177.931 90.2473 179.998 89.8013C178.695 89.2717 177.364 88.742 176.062 88.2124C177.676 88.1566 180.394 87.85 183.254 86.3726C186.199 84.8673 187.869 82.8603 189.285 81.1041C190.956 79.0413 193.589 75.2223 195.09 69.4521C194.353 68.1977 191.522 63.1243 192.994 56.8801C193.815 53.4236 195.599 51.0541 196.704 49.7997C198.431 49.9112 199.365 50.6081 199.733 50.9426C201.631 52.643 201.857 56.1275 199.96 59.4168C200.781 58.8314 202.735 57.2147 203.669 54.3713C204.66 51.4165 203.867 48.9356 203.443 47.5139C202.905 45.8135 202.112 43.2768 199.733 42.0224C199.054 41.66 197.978 41.214 196.704 41.3255C192.626 41.7158 191.777 48.1551 187.02 54.0926C183.452 58.5248 176.118 64.6017 168.898 63.7933C163.461 63.18 160.856 58.9987 158.166 60.4482Z" fill="#161616" stroke="#161616" stroke-width="3"/>
<path fill-rule="evenodd" clip-rule="evenodd" d="M168.133 49.3259C168.473 53.7303 168.53 58.1625 168.275 62.5669C168.247 62.9571 168.756 63.0965 169.011 62.8735C170.427 61.647 171.843 60.4204 173.23 59.1939C173.627 58.8315 173.032 58.2461 172.636 58.6085C171.22 59.8351 169.804 61.0616 168.417 62.2881C168.671 62.3996 168.898 62.4832 169.153 62.5947C169.408 58.1904 169.351 53.7582 169.011 49.3538C168.955 48.7963 168.105 48.7963 168.133 49.3259Z" fill="#161616"/>
<path fill-rule="evenodd" clip-rule="evenodd" d="M162.017 53.6187C161.904 53.3121 161.536 52.0856 162.215 52.0856C162.612 52.0856 162.612 52.7546 162.612 53.0055C162.612 53.2564 162.612 53.6745 162.414 53.8975C162.215 54.1484 161.932 53.9533 161.847 53.6745C161.762 53.3957 161.819 53.0891 161.847 52.8104C161.932 52.2807 161.111 52.0577 161.026 52.5873C160.885 53.4794 160.998 54.9289 162.272 54.8453C163.178 54.7895 163.433 53.7302 163.433 52.9776C163.433 52.1971 163.093 51.1099 162.074 51.2214C160.743 51.3887 160.828 52.894 161.139 53.8139C161.366 54.3435 162.187 54.1205 162.017 53.6187Z" fill="#161616"/>
<path fill-rule="evenodd" clip-rule="evenodd" d="M162.612 53.3679C162.414 53.1448 162.414 52.7546 162.612 52.5037C162.385 52.4758 162.159 52.448 161.932 52.4201C162.159 52.7267 162.215 53.1727 161.961 53.4794C162.187 53.5072 162.414 53.5351 162.64 53.563C162.555 53.4236 161.961 52.6152 162.442 52.5873C162.385 52.5873 162.442 52.5037 162.414 52.6431C162.414 52.7546 162.442 52.894 162.442 53.0333C162.442 53.117 162.385 53.4794 162.244 53.3957C161.791 53.0891 161.366 53.8139 161.819 54.1205C162.329 54.455 162.98 54.1205 163.178 53.6187C163.376 53.1448 163.376 52.1971 162.867 51.8904C162.414 51.6117 161.791 51.8626 161.536 52.2807C161.196 52.8661 161.536 53.5072 161.876 54.009C162.017 54.2041 162.357 54.3156 162.555 54.0926C163.037 53.5072 163.122 52.671 162.668 52.0298C162.527 51.8347 162.187 51.7232 161.989 51.9462C161.479 52.5595 161.479 53.3679 161.989 53.9811C162.357 54.3435 162.952 53.7581 162.612 53.3679Z" fill="#161616"/>
<path fill-rule="evenodd" clip-rule="evenodd" d="M178.497 52.4758C178.214 52.2249 177.874 51.6395 178.384 51.3886C178.893 51.1377 178.978 51.8068 178.978 52.1413C178.978 52.3364 179.035 53.1169 178.695 53.1169C178.384 53.1169 178.214 52.4758 178.129 52.2806C177.987 51.7789 177.166 51.974 177.308 52.5037C177.534 53.2284 178.1 54.2041 179.007 53.8974C179.884 53.6187 179.913 52.3364 179.771 51.6116C179.601 50.7475 178.723 50.19 177.902 50.6917C176.996 51.2493 177.194 52.42 177.902 53.0612C178.299 53.4236 178.893 52.8382 178.497 52.4758Z" fill="#161616"/>
<path fill-rule="evenodd" clip-rule="evenodd" d="M179.091 52.6987C178.978 52.3363 178.95 51.9739 179.035 51.6115C178.837 51.6952 178.61 51.7788 178.412 51.8624C178.61 51.9739 178.61 52.3363 178.412 52.4478C178.61 52.5314 178.837 52.6151 179.035 52.6987C178.865 52.3363 178.723 51.946 178.553 51.5837C178.469 51.3885 178.27 51.2213 178.044 51.3049C177.846 51.3606 177.647 51.6115 177.761 51.8067C177.931 52.169 178.072 52.5593 178.242 52.9217C178.355 53.1726 178.61 53.3398 178.865 53.1726C179.601 52.7266 179.601 51.5837 178.865 51.1376C178.638 50.9983 178.299 51.1098 178.242 51.3885C178.129 51.9182 178.157 52.4199 178.299 52.9217C178.44 53.4234 179.233 53.2004 179.091 52.6987Z" fill="#161616"/>
<path fill-rule="evenodd" clip-rule="evenodd" d="M160.8 48.5454C161.706 46.9008 163.943 46.6778 165.075 48.2388C165.387 48.6848 166.123 48.2667 165.811 47.8207C164.311 45.7857 161.309 45.8694 160.063 48.1273C159.809 48.6012 160.545 49.0193 160.8 48.5454Z" fill="#161616"/>
<path fill-rule="evenodd" clip-rule="evenodd" d="M175.665 48.4618C176.883 46.4826 179.743 46.6498 180.62 48.8241C180.819 49.3259 181.64 49.1029 181.442 48.6011C180.281 45.7578 176.543 45.3954 174.929 48.0436C174.646 48.4896 175.382 48.9078 175.665 48.4618Z" fill="#161616"/>
<path fill-rule="evenodd" clip-rule="evenodd" d="M148.822 41.1025C163.546 41.9388 178.242 43.1096 192.909 44.6149C194.552 44.7821 194.523 42.2733 192.909 42.1061C178.242 40.5729 163.546 39.4021 148.822 38.5937C147.18 38.5101 147.18 41.0189 148.822 41.1025Z" fill="#161616"/>
<path fill-rule="evenodd" clip-rule="evenodd" d="M158.365 39.2628C158.591 37.1163 159.525 31.597 164.028 27.0811C170.115 20.9763 180.734 18.8578 189.115 23.736C195.684 27.5829 199.507 34.9142 199.054 42.6915C185.491 41.5764 171.928 40.4057 158.365 39.2628Z" fill="#5222D0"/>
<path opacity="0.11" fill-rule="evenodd" clip-rule="evenodd" d="M199.535 59.1104C199.507 59.3334 199.139 61.201 197.44 62.0373C196.562 62.4554 195.741 62.4554 195.344 62.3997C197.072 64.574 204.151 73.9959 201.914 85.5365C201.319 88.547 200.215 91.0837 199.082 93.0908C200.951 91.9479 203.386 90.1917 205.765 87.5993C208.709 84.3936 210.38 81.1879 211.343 78.9578C209.559 76.7556 207.605 74.0517 205.765 70.7902C203.358 66.5253 201.829 62.5112 200.809 59.2219C200.356 59.194 199.96 59.1382 199.535 59.1104Z" fill="#3D3D3D"/>
<path opacity="0.12" fill-rule="evenodd" clip-rule="evenodd" d="M168.105 49.4932C167.086 53.34 166.038 57.2147 165.019 61.0616C166.18 61.5076 167.341 61.9536 168.473 62.3996C168.36 58.0789 168.247 53.786 168.105 49.4932Z" fill="#3D3D3D"/>
<path opacity="0.69" fill-rule="evenodd" clip-rule="evenodd" d="M176.968 22.2029C174.051 24.8232 175.665 32.7399 180.79 41.1305C186.85 41.6601 192.909 42.2176 198.969 42.7473C199.167 40.2942 199.195 35.5275 196.392 30.9559C191.607 23.1786 180.564 18.9972 176.968 22.2029Z" fill="#3A1DA3"/>
</svg>
